<svg xmlns="http://www.w3.org/2000/svg" xmlns:xlink="http://www.w3.org/1999/xlink" id="Layer_1" width="128" height="128" x="0" y="0" enable-background="new 0 0 128 128" version="1.1" viewBox="0 0 128 128" xml:space="preserve"><path d="M52,0v16H24v6h8c3.3,0,6,2.7,6,6v72c0,3.3-2.7,6-6,6h-8v6h28v16h8v-16h8v16h8v-16h1c15-0.5,27-12.8,27-28	c0-11.4-6.794-21.194-16.594-25.594C92.605,54.006,96,47.4,96,40c0-11.906-8.624-21.705-20-23.625V0h-8v16h-8V0H52z M52,22h15	c9.4,0,17,7.6,17,17s-7.6,17-17,17H52V22z M52,62h16.5c12.2,0,22,9.8,22,22s-9.8,22-22,22H52V62z"/></svg>